<?xml version="1.0" standalone="no"?>
<!DOCTYPE svg PUBLIC "-//W3C//DTD SVG 20010904//EN"
 "http://www.w3.org/TR/2001/REC-SVG-20010904/DTD/svg10.dtd">
<svg version="1.0" xmlns="http://www.w3.org/2000/svg"
 width="900.000000pt" height="506.000000pt" viewBox="0 0 900.000000 506.000000"
 preserveAspectRatio="xMidYMid meet">

<g transform="translate(0.000000,506.000000) scale(0.100000,-0.100000)"
fill="#000000" stroke="none">
<path d="M4356 3409 c-2 -8 -7 -46 -11 -85 -5 -61 -3 -72 10 -78 43 -16 116 6
129 39 3 9 6 34 6 56 0 30 -5 42 -25 55 -34 22 -103 31 -109 13z m85 -29 c14
-8 19 -21 19 -48 0 -47 -14 -62 -58 -62 -34 0 -35 0 -28 38 3 20 6 47 6 60 0
24 27 30 61 12z"/>
<path d="M4155 3388 c-7 -23 -25 -131 -25 -156 0 -30 22 -24 30 9 7 29 59 39
80 15 11 -15 40 -22 40 -11 0 2 -21 38 -46 80 -43 70 -69 91 -79 63z m52 -82
c-2 -6 -11 -12 -20 -14 -14 -3 -17 4 -17 35 l1 38 20 -24 c11 -13 18 -29 16
-35z"/>
<path d="M4692 3268 c-28 -46 -40 -74 -34 -80 10 -10 18 1 71 87 13 22 13 27
-5 -92 -8 -53 3 -55 59 -10 65 53 73 55 47 11 -13 -21 -27 -43 -32 -48 -12
-15 -10 -36 5 -36 17 0 90 128 83 146 -8 22 -23 17 -79 -25 -28 -22 -53 -38
-55 -37 -2 2 2 34 9 71 9 56 9 69 -2 76 -8 5 -16 9 -19 9 -3 -1 -24 -33 -48
-72z"/>
<path d="M3910 3295 c-60 -64 16 -183 94 -147 58 26 69 90 25 147 -28 35 -86
35 -119 0z m75 -1 c17 -7 45 -54 45 -78 0 -22 -28 -46 -54 -46 -51 0 -81 87
-41 116 21 16 27 17 50 8z"/>
<path d="M4955 3127 c-10 -29 -29 -64 -42 -79 -34 -36 -20 -56 17 -24 16 13
52 29 79 36 28 7 53 16 56 20 10 16 -16 21 -51 10 -19 -7 -38 -10 -40 -7 -3 3
2 21 10 40 11 28 12 38 2 46 -9 8 -17 -3 -31 -42z"/>
<path d="M3726 3161 c-5 -7 0 -21 11 -34 10 -12 36 -41 56 -64 l37 -43 35 31
c40 35 37 60 -3 30 l-27 -20 -51 56 c-35 40 -53 53 -58 44z"/>
<path d="M3636 3072 c-4 -8 9 -32 34 -62 23 -28 38 -50 33 -50 -4 0 -32 9 -61
20 -83 32 -91 18 -32 -54 22 -27 39 -50 37 -52 -2 -2 -27 6 -57 17 -29 11 -60
17 -68 14 -23 -8 -6 -18 82 -50 63 -22 80 -25 86 -14 8 12 -18 60 -40 74 -6 3
-14 15 -20 25 -10 18 -7 18 51 -2 77 -26 92 -13 49 41 -72 90 -87 104 -94 93z"/>
<path d="M5105 2868 c-48 -26 -60 -87 -26 -129 26 -32 35 -20 15 20 -14 29
-14 34 0 56 19 28 62 43 85 28 9 -5 22 -22 29 -36 7 -15 17 -27 23 -27 20 0 8
43 -20 71 -31 31 -70 37 -106 17z"/>
<path d="M3482 2774 c-17 -8 -42 -58 -42 -84 0 -12 13 -35 29 -51 40 -40 100
-41 130 -3 29 36 27 85 -3 113 -24 22 -88 36 -114 25z m78 -34 c34 -18 44 -48
25 -76 -28 -44 -115 -21 -115 31 0 45 46 68 90 45z"/>
<path d="M5193 2657 c-109 -63 -100 -78 54 -93 63 -7 67 -6 54 9 -7 10 -26 17
-41 17 -43 0 -90 12 -85 21 3 4 28 20 55 35 28 15 50 33 50 41 0 19 -8 17 -87
-30z"/>
<path d="M3430 2522 c-16 -13 -24 -32 -27 -69 l-5 -50 38 -6 c22 -4 60 -7 87
-7 l47 0 0 50 c0 41 -5 56 -25 75 -29 30 -83 33 -115 7z m100 -32 c11 -11 20
-31 20 -45 0 -24 -3 -25 -52 -25 -66 0 -83 10 -73 41 4 13 12 30 17 37 16 19
66 14 88 -8z"/>
<path d="M5148 2345 c-13 -13 2 -25 33 -25 42 0 37 -26 -11 -50 -22 -11 -40
-27 -40 -36 0 -13 7 -12 43 8 l42 23 21 -22 c29 -28 60 -20 73 19 13 36 14 65
4 71 -15 9 -158 19 -165 12z m140 -57 c-2 -15 -11 -24 -25 -26 -19 -3 -23 1
-23 22 0 21 5 26 26 26 21 0 25 -4 22 -22z"/>
<path d="M5112 2149 c2 -7 38 -24 79 -36 87 -27 89 -27 89 -9 0 14 -62 37
-141 53 -24 5 -31 3 -27 -8z"/>
<path d="M5091 2036 c-27 -15 -50 -52 -51 -82 0 -14 12 -26 36 -38 20 -9 38
-16 39 -14 17 21 25 52 16 61 -7 7 -12 5 -17 -6 -3 -9 -13 -17 -20 -17 -36 0
-22 63 15 75 25 8 78 -19 86 -44 6 -21 -8 -65 -25 -76 -11 -7 -4 -25 10 -25
14 0 40 55 40 85 0 39 -18 65 -55 81 -41 17 -44 17 -74 0z"/>
<path d="M4984 1869 c-4 -7 4 -22 20 -36 l27 -23 -21 -30 c-25 -35 -27 -36
-60 -10 -29 23 -40 25 -40 7 0 -22 123 -118 135 -106 7 7 1 17 -18 33 l-28 23
26 31 27 32 25 -20 c51 -40 60 -15 11 29 -85 74 -96 82 -104 70z"/>
<path d="M4812 1691 c-9 -5 -1 -24 28 -63 45 -63 47 -73 24 -86 -9 -5 -14 -14
-10 -20 7 -12 106 52 106 69 0 13 -24 11 -37 -2 -8 -8 -23 5 -55 49 -29 39
-48 58 -56 53z"/>
<path d="M3975 1544 c-28 -36 -49 -69 -47 -72 6 -17 24 -3 62 47 l40 55 -7
-50 c-17 -117 -4 -129 58 -50 24 30 44 54 45 53 1 -1 -3 -28 -8 -60 -10 -57
-7 -87 10 -87 14 0 31 174 18 182 -18 12 -20 10 -60 -42 -21 -28 -40 -49 -41
-48 -2 2 1 30 6 62 13 100 -7 102 -76 10z"/>
<path d="M4602 1572 c-8 -6 -9 -18 -3 -42 26 -102 28 -101 -38 -36 -81 80 -95
74 -70 -29 23 -98 22 -96 36 -87 10 6 9 20 -2 62 -8 30 -12 56 -10 58 2 2 28
-19 58 -47 81 -77 90 -69 61 56 -18 78 -16 74 -32 65z"/>
<path d="M4265 1515 c-54 -53 -18 -155 55 -155 76 0 112 105 54 158 -33 29
-78 29 -109 -3z m93 -17 c7 -7 12 -29 12 -50 0 -29 -6 -41 -25 -54 -23 -15
-27 -15 -50 0 -19 13 -25 25 -25 54 0 45 14 62 50 62 14 0 31 -5 38 -12z"/>
</g>
</svg>
